<mxfile host="app.diagrams.net" modified="2023-04-11T20:03:33.411Z" agent="Mozilla/5.0 (Windows NT 10.0; Win64; x64) AppleWebKit/537.36 (KHTML, like Gecko) Chrome/109.0.0.0 Safari/537.36" etag="efLVOTBjFNdZFg-FIM1E" version="21.1.6" type="device">
  <diagram name="Page-1" id="15ksL_XABy-CZAW4xfYF">
    <mxGraphModel dx="1195" dy="637" grid="1" gridSize="10" guides="1" tooltips="1" connect="1" arrows="1" fold="1" page="1" pageScale="1" pageWidth="850" pageHeight="1100" math="0" shadow="0">
      <root>
        <mxCell id="0" />
        <mxCell id="1" parent="0" />
        <mxCell id="bPBW6rnya8vK9RgfQNZB-7" value="" style="edgeStyle=orthogonalEdgeStyle;rounded=0;orthogonalLoop=1;jettySize=auto;html=1;" edge="1" parent="1" source="bPBW6rnya8vK9RgfQNZB-1" target="bPBW6rnya8vK9RgfQNZB-6">
          <mxGeometry relative="1" as="geometry" />
        </mxCell>
        <mxCell id="bPBW6rnya8vK9RgfQNZB-1" value="" style="whiteSpace=wrap;html=1;aspect=fixed;" vertex="1" parent="1">
          <mxGeometry x="120" y="200" width="200" height="200" as="geometry" />
        </mxCell>
        <mxCell id="bPBW6rnya8vK9RgfQNZB-4" value="&lt;h1&gt;Resume Help&lt;/h1&gt;&lt;p&gt;Enter in your resume here:&amp;nbsp;&lt;/p&gt;" style="text;html=1;strokeColor=none;fillColor=none;spacing=5;spacingTop=-20;whiteSpace=wrap;overflow=hidden;rounded=0;" vertex="1" parent="1">
          <mxGeometry x="125" y="210" width="190" height="70" as="geometry" />
        </mxCell>
        <mxCell id="bPBW6rnya8vK9RgfQNZB-5" value="" style="rounded=0;whiteSpace=wrap;html=1;" vertex="1" parent="1">
          <mxGeometry x="130" y="300" width="50" height="10" as="geometry" />
        </mxCell>
        <mxCell id="bPBW6rnya8vK9RgfQNZB-6" value="" style="whiteSpace=wrap;html=1;aspect=fixed;" vertex="1" parent="1">
          <mxGeometry x="360" y="200" width="200" height="200" as="geometry" />
        </mxCell>
        <mxCell id="bPBW6rnya8vK9RgfQNZB-8" value="&lt;font style=&quot;font-size: 6px;&quot;&gt;Enter File here&lt;/font&gt;" style="text;html=1;strokeColor=none;fillColor=none;align=center;verticalAlign=middle;whiteSpace=wrap;rounded=0;" vertex="1" parent="1">
          <mxGeometry x="100" y="293" width="110" height="20" as="geometry" />
        </mxCell>
        <mxCell id="bPBW6rnya8vK9RgfQNZB-18" value="" style="edgeStyle=orthogonalEdgeStyle;rounded=0;orthogonalLoop=1;jettySize=auto;html=1;" edge="1" parent="1" source="bPBW6rnya8vK9RgfQNZB-9" target="bPBW6rnya8vK9RgfQNZB-17">
          <mxGeometry relative="1" as="geometry" />
        </mxCell>
        <mxCell id="bPBW6rnya8vK9RgfQNZB-9" value="&lt;h1&gt;&lt;span style=&quot;background-color: initial;&quot;&gt;Loading...&lt;/span&gt;&lt;/h1&gt;&lt;h1&gt;&lt;br&gt;&lt;/h1&gt;&lt;div&gt;&lt;br&gt;&lt;/div&gt;&lt;div&gt;&lt;br&gt;&lt;/div&gt;&lt;div&gt;&lt;br&gt;&lt;/div&gt;&lt;div&gt;&lt;br&gt;&lt;/div&gt;&lt;div&gt;Finding the best suggestions!&amp;nbsp;&lt;/div&gt;" style="text;html=1;strokeColor=none;fillColor=none;spacing=5;spacingTop=-20;whiteSpace=wrap;overflow=hidden;rounded=0;" vertex="1" parent="1">
          <mxGeometry x="360" y="200" width="200" height="200" as="geometry" />
        </mxCell>
        <mxCell id="bPBW6rnya8vK9RgfQNZB-10" value="" style="whiteSpace=wrap;html=1;aspect=fixed;" vertex="1" parent="1">
          <mxGeometry x="417.5" y="256.5" width="80" height="80" as="geometry" />
        </mxCell>
        <mxCell id="bPBW6rnya8vK9RgfQNZB-11" value="" style="rounded=0;whiteSpace=wrap;html=1;" vertex="1" parent="1">
          <mxGeometry x="435" y="273" width="45" height="7" as="geometry" />
        </mxCell>
        <mxCell id="bPBW6rnya8vK9RgfQNZB-12" value="" style="rounded=0;whiteSpace=wrap;html=1;" vertex="1" parent="1">
          <mxGeometry x="435" y="286" width="45" height="7" as="geometry" />
        </mxCell>
        <mxCell id="bPBW6rnya8vK9RgfQNZB-13" value="" style="rounded=0;whiteSpace=wrap;html=1;" vertex="1" parent="1">
          <mxGeometry x="435" y="299.5" width="45" height="7" as="geometry" />
        </mxCell>
        <mxCell id="bPBW6rnya8vK9RgfQNZB-14" value="" style="rounded=0;whiteSpace=wrap;html=1;" vertex="1" parent="1">
          <mxGeometry x="435" y="313" width="45" height="7" as="geometry" />
        </mxCell>
        <mxCell id="bPBW6rnya8vK9RgfQNZB-30" value="" style="edgeStyle=orthogonalEdgeStyle;rounded=0;orthogonalLoop=1;jettySize=auto;html=1;" edge="1" parent="1" source="bPBW6rnya8vK9RgfQNZB-17" target="bPBW6rnya8vK9RgfQNZB-29">
          <mxGeometry relative="1" as="geometry" />
        </mxCell>
        <mxCell id="bPBW6rnya8vK9RgfQNZB-17" value="" style="whiteSpace=wrap;html=1;aspect=fixed;" vertex="1" parent="1">
          <mxGeometry x="600" y="200" width="200" height="200" as="geometry" />
        </mxCell>
        <mxCell id="bPBW6rnya8vK9RgfQNZB-19" value="" style="rounded=0;whiteSpace=wrap;html=1;" vertex="1" parent="1">
          <mxGeometry x="610" y="249" width="70" height="24" as="geometry" />
        </mxCell>
        <mxCell id="bPBW6rnya8vK9RgfQNZB-20" value="Yours:&amp;nbsp;" style="text;html=1;strokeColor=none;fillColor=none;align=center;verticalAlign=middle;whiteSpace=wrap;rounded=0;" vertex="1" parent="1">
          <mxGeometry x="601" y="210" width="60" height="30" as="geometry" />
        </mxCell>
        <mxCell id="bPBW6rnya8vK9RgfQNZB-21" value="Suggestion:" style="text;html=1;strokeColor=none;fillColor=none;align=center;verticalAlign=middle;whiteSpace=wrap;rounded=0;" vertex="1" parent="1">
          <mxGeometry x="707" y="210" width="60" height="30" as="geometry" />
        </mxCell>
        <mxCell id="bPBW6rnya8vK9RgfQNZB-22" value="" style="rounded=0;whiteSpace=wrap;html=1;" vertex="1" parent="1">
          <mxGeometry x="705" y="249" width="70" height="24" as="geometry" />
        </mxCell>
        <mxCell id="bPBW6rnya8vK9RgfQNZB-23" value="" style="rounded=0;whiteSpace=wrap;html=1;" vertex="1" parent="1">
          <mxGeometry x="610" y="286" width="70" height="24" as="geometry" />
        </mxCell>
        <mxCell id="bPBW6rnya8vK9RgfQNZB-24" value="" style="rounded=0;whiteSpace=wrap;html=1;" vertex="1" parent="1">
          <mxGeometry x="610" y="320" width="70" height="24" as="geometry" />
        </mxCell>
        <mxCell id="bPBW6rnya8vK9RgfQNZB-25" value="" style="rounded=0;whiteSpace=wrap;html=1;" vertex="1" parent="1">
          <mxGeometry x="705" y="286" width="70" height="24" as="geometry" />
        </mxCell>
        <mxCell id="bPBW6rnya8vK9RgfQNZB-26" value="" style="rounded=0;whiteSpace=wrap;html=1;" vertex="1" parent="1">
          <mxGeometry x="705" y="320" width="70" height="24" as="geometry" />
        </mxCell>
        <mxCell id="bPBW6rnya8vK9RgfQNZB-27" value="" style="rounded=0;whiteSpace=wrap;html=1;" vertex="1" parent="1">
          <mxGeometry x="610" y="350" width="70" height="24" as="geometry" />
        </mxCell>
        <mxCell id="bPBW6rnya8vK9RgfQNZB-28" value="" style="rounded=0;whiteSpace=wrap;html=1;" vertex="1" parent="1">
          <mxGeometry x="705" y="350" width="70" height="24" as="geometry" />
        </mxCell>
        <mxCell id="bPBW6rnya8vK9RgfQNZB-29" value="" style="whiteSpace=wrap;html=1;aspect=fixed;movable=0;resizable=0;rotatable=0;deletable=0;editable=0;locked=1;connectable=0;" vertex="1" parent="1">
          <mxGeometry x="840" y="200" width="200" height="200" as="geometry" />
        </mxCell>
        <mxCell id="bPBW6rnya8vK9RgfQNZB-31" value="Final Product:&amp;nbsp;" style="rounded=0;whiteSpace=wrap;html=1;" vertex="1" parent="1">
          <mxGeometry x="880" y="210" width="120" height="30" as="geometry" />
        </mxCell>
        <mxCell id="bPBW6rnya8vK9RgfQNZB-34" value="" style="whiteSpace=wrap;html=1;aspect=fixed;" vertex="1" parent="1">
          <mxGeometry x="900" y="256.5" width="80" height="80" as="geometry" />
        </mxCell>
        <mxCell id="bPBW6rnya8vK9RgfQNZB-35" value="" style="rounded=0;whiteSpace=wrap;html=1;" vertex="1" parent="1">
          <mxGeometry x="917.5" y="273" width="45" height="7" as="geometry" />
        </mxCell>
        <mxCell id="bPBW6rnya8vK9RgfQNZB-36" value="" style="rounded=0;whiteSpace=wrap;html=1;" vertex="1" parent="1">
          <mxGeometry x="917.5" y="286" width="45" height="7" as="geometry" />
        </mxCell>
        <mxCell id="bPBW6rnya8vK9RgfQNZB-37" value="" style="rounded=0;whiteSpace=wrap;html=1;" vertex="1" parent="1">
          <mxGeometry x="917.5" y="299.5" width="45" height="7" as="geometry" />
        </mxCell>
        <mxCell id="bPBW6rnya8vK9RgfQNZB-38" value="" style="rounded=0;whiteSpace=wrap;html=1;" vertex="1" parent="1">
          <mxGeometry x="917.5" y="313" width="45" height="7" as="geometry" />
        </mxCell>
        <mxCell id="bPBW6rnya8vK9RgfQNZB-39" value="Download" style="rounded=0;whiteSpace=wrap;html=1;" vertex="1" parent="1">
          <mxGeometry x="895" y="350" width="90" height="20" as="geometry" />
        </mxCell>
      </root>
    </mxGraphModel>
  </diagram>
</mxfile>
